<?xml version="1.0" encoding="UTF-8" standalone="no"?>
<!DOCTYPE svg PUBLIC "-//W3C//DTD SVG 1.1//EN" "http://www.w3.org/Graphics/SVG/1.1/DTD/svg11.dtd">
<svg width="262px" height="68px" version="1.1" xmlns="http://www.w3.org/2000/svg" xmlns:xlink="http://www.w3.org/1999/xlink" xml:space="preserve" style="fill-rule:evenodd;clip-rule:evenodd;stroke-linejoin:round;stroke-miterlimit:1.41421;">
    <g id="sal_logo_title" transform="matrix(0.452504,0,0,0.639803,-25.7927,-150.354)">
        <rect x="57" y="235" width="579" height="106.283" style="fill-opacity:0;"/>
        <clipPath id="_clip1">
            <rect x="57" y="235" width="579" height="106.283"/>
        </clipPath>
        <g clip-path="url(#_clip1)">
            <g transform="matrix(1.36828,-3.61161,5.10651,0.967727,-1359.58,769.426)">
                <path d="M189.141,234.496L189.141,233.324L192.364,233.324C192.95,233.324 193.243,233.031 193.243,232.445L193.243,231.859C193.243,231.273 192.95,230.98 192.364,230.98L191.192,230.98C189.825,230.98 189.141,230.297 189.141,228.93L189.141,228.344C189.141,226.976 189.825,226.293 191.192,226.293L194.415,226.293L194.415,227.465L191.192,227.465C190.606,227.465 190.313,227.758 190.313,228.344L190.313,228.93C190.313,229.515 190.606,229.808 191.192,229.808L192.364,229.808C193.731,229.808 194.415,230.492 194.415,231.859L194.415,232.445C194.415,233.812 193.731,234.496 192.364,234.496L189.141,234.496Z" style="fill:rgb(242,242,242);fill-rule:nonzero;"/>
            </g>
            <g transform="matrix(5.10651,-0.967727,1.36828,3.61161,-1214.95,-367.946)">
                <path d="M201.446,234.496L200.274,234.496L199.729,232.738L196.717,232.738L196.172,234.496L195,234.496L197.461,226.293L198.985,226.293L201.446,234.496ZM197.075,231.566L199.372,231.566L198.223,227.465L197.075,231.566Z" style="fill:rgb(242,242,242);fill-rule:nonzero;"/>
            </g>
            <g transform="matrix(5.10651,0.967727,-1.36828,3.61161,-579.606,-777.792)">
                <path d="M203.204,233.324L206.719,233.324L206.719,234.496L202.032,234.496L202.032,226.293L203.204,226.293L203.204,233.324Z" style="fill:rgb(242,242,242);fill-rule:nonzero;"/>
            </g>
            <g transform="matrix(0.311252,-0.220135,0.332582,0.235221,-89.4508,323.728)">
                <path d="M591,291C591,278.535 585.709,266.58 576.291,257.766C566.873,248.952 554.099,244 540.779,244C476.655,244 366.345,244 302.221,244C288.901,244 276.127,248.952 266.709,257.766C257.291,266.58 252,278.535 252,291C252,291 252,291 252,291C252,303.465 257.291,315.42 266.709,324.234C276.127,333.048 288.901,338 302.221,338C366.345,338 476.655,338 540.779,338C554.099,338 566.873,333.048 576.291,324.234C585.709,315.42 591,303.465 591,291C591,291 591,291 591,291Z" style="fill:rgb(137,51,52);"/>
                <clipPath id="_clip2">
                    <path d="M591,291C591,278.535 585.709,266.58 576.291,257.766C566.873,248.952 554.099,244 540.779,244C476.655,244 366.345,244 302.221,244C288.901,244 276.127,248.952 266.709,257.766C257.291,266.58 252,278.535 252,291C252,291 252,291 252,291C252,303.465 257.291,315.42 266.709,324.234C276.127,333.048 288.901,338 302.221,338C366.345,338 476.655,338 540.779,338C554.099,338 566.873,333.048 576.291,324.234C585.709,315.42 591,303.465 591,291C591,291 591,291 591,291Z"/>
                </clipPath>
                <g clip-path="url(#_clip2)">
                    <g id="swiss_logo" transform="matrix(-1.11022e-16,1.36128,-1.45457,-2.22045e-16,934.91,-253.677)">
                        <g transform="matrix(0.62963,0,0,2.68421,148.148,-517.579)">
                            <path d="M427,307.277C427,307.124 426.471,307 425.819,307C418.678,307 381.322,307 374.181,307C373.529,307 373,307.124 373,307.277C373,307.848 373,309.152 373,309.723C373,309.876 373.529,310 374.181,310C381.322,310 418.678,310 425.819,310C426.471,310 427,309.876 427,309.723C427,309.152 427,307.848 427,307.277Z" style="fill:rgb(242,242,242);"/>
                        </g>
                        <g transform="matrix(3.85537e-17,-0.62963,2.68421,1.6436e-16,-428.079,562.352)">
                            <path d="M427,307.277C427,307.124 426.471,307 425.819,307C418.678,307 381.322,307 374.181,307C373.529,307 373,307.124 373,307.277C373,307.848 373,309.152 373,309.723C373,309.876 373.529,310 374.181,310C381.322,310 418.678,310 425.819,310C426.471,310 427,309.876 427,309.723C427,309.152 427,307.848 427,307.277Z" style="fill:rgb(242,242,242);"/>
                        </g>
                        <g transform="matrix(0.780707,0,-5.55112e-17,0.780707,88.1075,78.2396)">
                            <path d="M373.692,271.53C374.537,270.699 375.453,269.944 376.435,269.28C378.299,268.02 380.385,267.094 382.571,266.56C383.54,266.323 384.528,266.163 385.523,266.081C386.01,266.041 386.498,266.021 386.987,266.016C395.37,265.99 403.753,265.937 412.136,266.017C412.826,266.028 413.514,266.072 414.199,266.154C415.573,266.32 416.928,266.637 418.233,267.097C420.918,268.043 423.377,269.598 425.389,271.611C427.374,273.596 428.914,276.015 429.864,278.657C430.345,279.996 430.675,281.389 430.846,282.801C430.928,283.486 430.972,284.174 430.983,284.864C431.063,293.288 431.064,301.713 430.983,310.136C430.972,310.826 430.928,311.514 430.846,312.199C430.68,313.573 430.363,314.928 429.903,316.233C428.906,319.062 427.232,321.64 425.062,323.709C423.141,325.54 420.841,326.966 418.343,327.864C417.004,328.345 415.612,328.675 414.199,328.846C413.514,328.928 412.826,328.972 412.136,328.983C403.713,329.063 395.288,329.061 386.864,328.983C386.174,328.972 385.486,328.928 384.801,328.846C383.388,328.675 381.996,328.345 380.657,327.864C378.159,326.966 375.859,325.54 373.938,323.709C371.768,321.64 370.094,319.062 369.097,316.233C368.637,314.928 368.32,313.573 368.154,312.199C368.072,311.514 368.028,310.826 368.017,310.136C367.938,301.712 367.938,293.288 368.017,284.864C368.026,284.335 368.052,283.808 368.103,283.281C368.197,282.29 368.369,281.306 368.618,280.341C369.159,278.239 370.064,276.234 371.28,274.435C371.922,273.485 372.651,272.597 373.45,271.774C373.53,271.692 373.611,271.611 373.692,271.53ZM376.353,274.481C375.737,275.109 375.172,275.784 374.671,276.507C373.657,277.969 372.904,279.608 372.461,281.331C372.159,282.502 372.005,283.705 371.985,284.914C371.906,293.304 371.906,301.696 371.985,310.086C371.994,310.633 372.028,311.179 372.094,311.723C372.229,312.84 372.49,313.942 372.87,315.001C373.582,316.98 374.712,318.801 376.163,320.323C377.803,322.043 379.844,323.37 382.086,324.161C383.119,324.524 384.191,324.774 385.277,324.906C385.853,324.975 386.432,325.01 387.012,325.015C395.37,325.043 403.728,325.094 412.086,325.015C412.633,325.006 413.179,324.972 413.723,324.906C414.84,324.771 415.942,324.51 417.001,324.13C419.209,323.336 421.219,322.021 422.837,320.323C424.288,318.801 425.418,316.98 426.13,315.001C426.51,313.942 426.771,312.84 426.906,311.723C426.975,311.147 427.01,310.568 427.015,309.988C427.04,301.63 427.094,293.272 427.015,284.914C427.006,284.367 426.971,283.821 426.906,283.277C426.771,282.16 426.51,281.058 426.13,279.999C425.377,277.906 424.156,275.989 422.583,274.417C421.011,272.844 419.094,271.623 417.001,270.87C415.942,270.49 414.84,270.229 413.723,270.094C413.147,270.025 412.568,269.99 411.988,269.985C403.63,269.958 395.272,269.905 386.914,269.985C385.705,270.005 384.502,270.159 383.331,270.461C381.608,270.904 379.969,271.657 378.507,272.671C377.784,273.172 377.109,273.737 376.481,274.353C376.438,274.395 376.395,274.438 376.353,274.481Z" style="fill:rgb(242,242,242);fill-rule:nonzero;"/>
                        </g>
                    </g>
                </g>
            </g>
            <g transform="matrix(6.12781,0,0,4.33393,-1928.04,-1124.96)">
                <path d="M352.514,329.96L352.514,328.788L355.736,328.788C356.322,328.788 356.615,328.495 356.615,327.909L356.615,327.323C356.615,326.738 356.322,326.445 355.736,326.445L354.564,326.445C353.197,326.445 352.514,325.761 352.514,324.394L352.514,323.808C352.514,322.441 353.197,321.757 354.564,321.757L357.787,321.757L357.787,322.929L354.564,322.929C353.978,322.929 353.685,323.222 353.685,323.808L353.685,324.394C353.685,324.98 353.978,325.273 354.564,325.273L355.736,325.273C357.103,325.273 357.787,325.956 357.787,327.323L357.787,327.909C357.787,329.277 357.103,329.96 355.736,329.96L352.514,329.96Z" style="fill:rgb(220,220,220);fill-rule:nonzero;"/>
                <path d="M364.174,328.73L365.111,324.101L366.283,324.101L364.935,329.96L363.471,329.96L362.475,325.671L361.478,329.96L360.014,329.96L358.666,324.101L359.838,324.101L360.775,328.671L361.771,324.101L363.178,324.101L364.174,328.73Z" style="fill:rgb(220,220,220);fill-rule:nonzero;"/>
                <path d="M368.334,324.101L368.334,329.96L367.162,329.96L367.162,324.101L368.334,324.101ZM368.334,321.757L368.334,322.929L367.162,322.929L367.162,321.757L368.334,321.757Z" style="fill:rgb(220,220,220);fill-rule:nonzero;"/>
                <path d="M369.506,329.96L369.506,328.788L372.143,328.788C372.533,328.788 372.728,328.593 372.728,328.202C372.728,327.773 372.533,327.558 372.143,327.558L371.264,327.558C370.092,327.558 369.506,326.991 369.506,325.859C369.506,324.687 370.092,324.101 371.264,324.101L373.9,324.101L373.9,325.273L371.264,325.273C370.873,325.273 370.678,325.468 370.678,325.859C370.678,326.21 370.873,326.386 371.264,326.386L372.143,326.386C373.314,326.386 373.9,326.991 373.9,328.202C373.9,329.374 373.314,329.96 372.143,329.96L369.506,329.96Z" style="fill:rgb(220,220,220);fill-rule:nonzero;"/>
                <path d="M375.072,329.96L375.072,328.788L377.709,328.788C378.1,328.788 378.295,328.593 378.295,328.202C378.295,327.773 378.1,327.558 377.709,327.558L376.83,327.558C375.658,327.558 375.072,326.991 375.072,325.859C375.072,324.687 375.658,324.101 376.83,324.101L379.467,324.101L379.467,325.273L376.83,325.273C376.439,325.273 376.244,325.468 376.244,325.859C376.244,326.21 376.439,326.386 376.83,326.386L377.709,326.386C378.881,326.386 379.467,326.991 379.467,328.202C379.467,329.374 378.881,329.96 377.709,329.96L375.072,329.96Z" style="fill:rgb(220,220,220);fill-rule:nonzero;"/>
                <path d="M386.498,329.96L385.326,329.96L384.781,328.202L381.769,328.202L381.225,329.96L380.053,329.96L382.514,321.757L384.037,321.757L386.498,329.96ZM382.127,327.03L384.424,327.03L383.275,322.929L382.127,327.03Z" style="fill:rgb(220,220,220);fill-rule:nonzero;"/>
                <path d="M388.256,329.96L387.084,329.96L387.084,324.101L388.08,324.101L388.256,324.687C388.646,324.296 389.135,324.101 389.721,324.101L390.014,324.101L390.014,325.273L389.721,325.273C389.135,325.273 388.646,325.37 388.256,325.566L388.256,329.96Z" style="fill:rgb(220,220,220);fill-rule:nonzero;"/>
                <path d="M391.889,324.101L392.064,324.687C392.26,324.296 392.65,324.101 393.236,324.101C393.912,324.101 394.412,324.355 394.736,324.863C395.197,324.355 395.713,324.101 396.283,324.101C397.768,324.101 398.51,324.784 398.51,326.152L398.51,329.96L397.338,329.96L397.338,326.152C397.338,325.566 397.004,325.273 396.336,325.273C395.863,325.273 395.514,325.468 395.287,325.859L395.287,329.96L394.115,329.96L394.115,325.8C393.978,325.448 393.685,325.273 393.236,325.273C392.65,325.273 392.26,325.468 392.064,325.859L392.064,329.96L390.893,329.96L390.893,324.101L391.889,324.101Z" style="fill:rgb(220,220,220);fill-rule:nonzero;"/>
                <path d="M404.369,324.101L404.369,329.96C404.369,331.523 403.588,332.304 402.025,332.304L400.268,332.304L400.268,331.132L402.025,331.132C402.807,331.132 403.197,330.741 403.197,329.96L403.197,329.374C402.807,329.765 402.318,329.96 401.732,329.96C400.365,329.96 399.682,329.277 399.682,327.909L399.682,324.101L400.853,324.101L400.853,327.909C400.853,328.495 401.146,328.788 401.732,328.788C402.318,328.788 402.807,328.691 403.197,328.495L403.197,324.101L404.369,324.101Z" style="fill:rgb(220,220,220);fill-rule:nonzero;"/>
                <path d="M406.713,328.788L410.228,328.788L410.228,329.96L405.541,329.96L405.541,321.757L406.713,321.757L406.713,328.788Z" style="fill:rgb(220,220,220);fill-rule:nonzero;"/>
                <path d="M412.572,324.101L412.572,329.96L411.4,329.96L411.4,324.101L412.572,324.101ZM412.572,321.757L412.572,322.929L411.4,322.929L411.4,321.757L412.572,321.757Z" style="fill:rgb(220,220,220);fill-rule:nonzero;"/>
                <path d="M414.916,324.687C415.307,324.296 415.795,324.101 416.381,324.101C417.748,324.101 418.432,324.784 418.432,326.152L418.432,327.909C418.432,329.277 417.748,329.96 416.381,329.96C415.795,329.96 415.307,329.765 414.916,329.374L414.74,329.96L413.744,329.96L413.744,321.757L414.916,321.757L414.916,324.687ZM416.381,328.788C416.967,328.788 417.26,328.495 417.26,327.909L417.26,326.152C417.26,325.566 416.967,325.273 416.381,325.273C415.795,325.273 415.307,325.37 414.916,325.566L414.916,328.495C415.307,328.691 415.795,328.788 416.381,328.788Z" style="fill:rgb(220,220,220);fill-rule:nonzero;"/>
            </g>
        </g>
    </g>
</svg>
